<?xml version="1.0" encoding="iso-8859-1"?>
<!-- Generator: Adobe Illustrator 19.0.0, SVG Export Plug-In . SVG Version: 6.00 Build 0)  -->
<svg version="1.1" id="Capa_1" xmlns="http://www.w3.org/2000/svg" xmlns:xlink="http://www.w3.org/1999/xlink" x="0px" y="0px"
	 viewBox="0 0 512 512" style="enable-background:new 0 0 512 512;" xml:space="preserve">
<g>
	<g>
		<path d="M257,0.032C167.502-0.605,96.752,62.518,80.156,140.788c-12.209,57.582,2.836,115.392,41.278,158.607
			C140.224,320.519,151,348.766,151,376.972v30c0,19.968,13.078,36.931,31.115,42.798c6.094,35.277,36.894,62.202,73.885,62.202
			c36.991,0,67.792-26.925,73.885-62.202C347.922,443.904,361,426.941,361,406.972v-30c0-27.86,11.096-56.497,30.442-78.569
			C420.176,265.622,436,223.563,436,179.972C436,81.523,356.87,0.743,257,0.032z M256,481.972c-19.556,0-36.239-12.639-42.43-30.1
			h84.859C292.239,469.333,275.556,481.972,256,481.972z M331,406.972c0,8.271-6.729,15-15,15H196c-8.271,0-15-6.729-15-15v-15h150
			V406.972z M241,239.972h-15c-24.813,0-45-20.187-45-45v-15h15c24.813,0,45,20.187,45,45V239.972z M368.881,278.629
			c-20.643,23.551-33.737,53.265-37.05,83.343H271v-92h15c41.355,0,75-33.645,75-75v-30c0-8.284-6.716-15-15-15h-30
			c-24.508,0-46.305,11.818-60,30.052c-13.695-18.234-35.492-30.052-60-30.052h-30c-8.284,0-15,6.716-15,15v30
			c0,41.355,33.645,75,75,75h15v92h-60.795c-3.216-30.279-16.069-59.709-36.356-82.516c-32.037-36.015-44.556-84.29-34.345-132.445
			C123.119,82.796,181.651,29.379,257,30.04c83.463,0.733,149,68.174,149,149.932C406,216.284,392.818,251.321,368.881,278.629z
			 M271,239.972v-15c0-24.813,20.187-45,45-45h15v15c0,24.813-20.187,45-45,45H271z"/>
	</g>
</g>
<g>
	<g>
		<path d="M45,179.972H15c-8.284,0-15,6.716-15,15c0,8.285,6.716,15,15,15h30c8.284,0,15-6.716,15-15S53.284,179.972,45,179.972z"/>
	</g>
</g>
<g>
	<g>
		<path d="M51.213,104.972L30,83.759c-5.857-5.858-15.354-5.858-21.213,0c-5.858,5.858-5.858,15.355,0,21.213L30,126.185
			c5.857,5.857,15.354,5.859,21.213,0C57.071,120.327,57.071,110.83,51.213,104.972z"/>
	</g>
</g>
<g>
	<g>
		<path d="M51.213,263.76c-5.858-5.859-15.355-5.859-21.213-0.001L8.787,284.973c-5.857,5.858-5.857,15.355,0,21.213
			c5.857,5.858,15.355,5.858,21.213,0l21.213-21.213C57.07,279.115,57.07,269.618,51.213,263.76z"/>
	</g>
</g>
<g>
	<g>
		<path d="M497,179.972h-30c-8.284,0-15,6.716-15,15c0,8.285,6.716,15,15,15h30c8.284,0,15-6.716,15-15S505.284,179.972,497,179.972
			z"/>
	</g>
</g>
<g>
	<g>
		<path d="M503.213,83.759c-5.857-5.858-15.355-5.858-21.213,0l-21.213,21.213c-5.858,5.858-5.858,15.355,0,21.213
			c5.858,5.858,15.355,5.859,21.213,0l21.213-21.213C509.071,99.114,509.071,89.617,503.213,83.759z"/>
	</g>
</g>
<g>
	<g>
		<path d="M503.213,284.972L482,263.759c-5.858-5.858-15.354-5.858-21.213,0c-5.858,5.858-5.858,15.355,0,21.213L482,306.185
			c5.857,5.857,15.354,5.859,21.213,0C509.071,300.327,509.071,290.83,503.213,284.972z"/>
	</g>
</g>
<g>
</g>
<g>
</g>
<g>
</g>
<g>
</g>
<g>
</g>
<g>
</g>
<g>
</g>
<g>
</g>
<g>
</g>
<g>
</g>
<g>
</g>
<g>
</g>
<g>
</g>
<g>
</g>
<g>
</g>
</svg>
